<svg width="1280" height="749" viewBox="0 0 1280 749" fill="none" xmlns="http://www.w3.org/2000/svg">
<path d="M107 0H108V-1H107V0ZM107 107V108H108V107H107ZM0 1H107V-1H0V1ZM106 0V107H108V0H106ZM107 106H0V108H107V106Z" fill="#F4F4F4" mask="url(#path-1-inside-1_3194_43314)"/>
<path d="M214 0H215V-1H214V0ZM214 107V108H215V107H214ZM107 1H214V-1H107V1ZM213 0V107H215V0H213ZM214 106H107V108H214V106Z" fill="#F4F4F4" mask="url(#path-3-inside-2_3194_43314)"/>
<path d="M321 0H322V-1H321V0ZM321 107V108H322V107H321ZM214 1H321V-1H214V1ZM320 0V107H322V0H320ZM321 106H214V108H321V106Z" fill="#F4F4F4" mask="url(#path-5-inside-3_3194_43314)"/>
<path d="M428 0H429V-1H428V0ZM428 107V108H429V107H428ZM321 1H428V-1H321V1ZM427 0V107H429V0H427ZM428 106H321V108H428V106Z" fill="#F4F4F4" mask="url(#path-7-inside-4_3194_43314)"/>
<path d="M535 0H536V-1H535V0ZM535 107V108H536V107H535ZM428 1H535V-1H428V1ZM534 0V107H536V0H534ZM535 106H428V108H535V106Z" fill="#F4F4F4" mask="url(#path-9-inside-5_3194_43314)"/>
<path d="M642 0H643V-1H642V0ZM642 107V108H643V107H642ZM535 1H642V-1H535V1ZM641 0V107H643V0H641ZM642 106H535V108H642V106Z" fill="#F4F4F4" mask="url(#path-11-inside-6_3194_43314)"/>
<path d="M749 0H750V-1H749V0ZM749 107V108H750V107H749ZM642 1H749V-1H642V1ZM748 0V107H750V0H748ZM749 106H642V108H749V106Z" fill="#F4F4F4" mask="url(#path-13-inside-7_3194_43314)"/>
<path d="M856 0H857V-1H856V0ZM856 107V108H857V107H856ZM749 1H856V-1H749V1ZM855 0V107H857V0H855ZM856 106H749V108H856V106Z" fill="#F4F4F4" mask="url(#path-15-inside-8_3194_43314)"/>
<path d="M963 0H964V-1H963V0ZM963 107V108H964V107H963ZM856 1H963V-1H856V1ZM962 0V107H964V0H962ZM963 106H856V108H963V106Z" fill="#F4F4F4" mask="url(#path-17-inside-9_3194_43314)"/>
<path d="M1070 0H1071V-1H1070V0ZM1070 107V108H1071V107H1070ZM963 1H1070V-1H963V1ZM1069 0V107H1071V0H1069ZM1070 106H963V108H1070V106Z" fill="#F4F4F4" mask="url(#path-19-inside-10_3194_43314)"/>
<path d="M1177 0H1178V-1H1177V0ZM1177 107V108H1178V107H1177ZM1070 1H1177V-1H1070V1ZM1176 0V107H1178V0H1176ZM1177 106H1070V108H1177V106Z" fill="#F4F4F4" mask="url(#path-21-inside-11_3194_43314)"/>
<path d="M1284 0H1285V-1H1284V0ZM1284 107V108H1285V107H1284ZM1177 1H1284V-1H1177V1ZM1283 0V107H1285V0H1283ZM1284 106H1177V108H1284V106Z" fill="#F4F4F4" mask="url(#path-23-inside-12_3194_43314)"/>
<path d="M107 214V215H108V214H107ZM106 107V214H108V107H106ZM107 213H0V215H107V213Z" fill="#F4F4F4" mask="url(#path-25-inside-13_3194_43314)"/>
<path d="M214 214V215H215V214H214ZM213 107V214H215V107H213ZM214 213H107V215H214V213Z" fill="#F4F4F4" mask="url(#path-27-inside-14_3194_43314)"/>
<path d="M321 214V215H322V214H321ZM320 107V214H322V107H320ZM321 213H214V215H321V213Z" fill="#F4F4F4" mask="url(#path-29-inside-15_3194_43314)"/>
<path d="M428 214V215H429V214H428ZM427 107V214H429V107H427ZM428 213H321V215H428V213Z" fill="#F4F4F4" mask="url(#path-31-inside-16_3194_43314)"/>
<path d="M535 214V215H536V214H535ZM534 107V214H536V107H534ZM535 213H428V215H535V213Z" fill="#F4F4F4" mask="url(#path-33-inside-17_3194_43314)"/>
<path d="M642 214V215H643V214H642ZM641 107V214H643V107H641ZM642 213H535V215H642V213Z" fill="#F4F4F4" mask="url(#path-35-inside-18_3194_43314)"/>
<path d="M749 214V215H750V214H749ZM748 107V214H750V107H748ZM749 213H642V215H749V213Z" fill="#F4F4F4" mask="url(#path-37-inside-19_3194_43314)"/>
<path d="M856 214V215H857V214H856ZM855 107V214H857V107H855ZM856 213H749V215H856V213Z" fill="#F4F4F4" mask="url(#path-39-inside-20_3194_43314)"/>
<path d="M963 214V215H964V214H963ZM962 107V214H964V107H962ZM963 213H856V215H963V213Z" fill="#F4F4F4" mask="url(#path-41-inside-21_3194_43314)"/>
<path d="M1070 214V215H1071V214H1070ZM1069 107V214H1071V107H1069ZM1070 213H963V215H1070V213Z" fill="#F4F4F4" mask="url(#path-43-inside-22_3194_43314)"/>
<path d="M1177 214V215H1178V214H1177ZM1176 107V214H1178V107H1176ZM1177 213H1070V215H1177V213Z" fill="#F4F4F4" mask="url(#path-45-inside-23_3194_43314)"/>
<path d="M1284 214V215H1285V214H1284ZM1283 107V214H1285V107H1283ZM1284 213H1177V215H1284V213Z" fill="#F4F4F4" mask="url(#path-47-inside-24_3194_43314)"/>
<path d="M107 321V322H108V321H107ZM106 214V321H108V214H106ZM107 320H0V322H107V320Z" fill="#F4F4F4" mask="url(#path-49-inside-25_3194_43314)"/>
<path d="M214 321V322H215V321H214ZM213 214V321H215V214H213ZM214 320H107V322H214V320Z" fill="#F4F4F4" mask="url(#path-51-inside-26_3194_43314)"/>
<path d="M321 321V322H322V321H321ZM320 214V321H322V214H320ZM321 320H214V322H321V320Z" fill="#F4F4F4" mask="url(#path-53-inside-27_3194_43314)"/>
<path d="M428 321V322H429V321H428ZM427 214V321H429V214H427ZM428 320H321V322H428V320Z" fill="#F4F4F4" mask="url(#path-55-inside-28_3194_43314)"/>
<path d="M535 321V322H536V321H535ZM534 214V321H536V214H534ZM535 320H428V322H535V320Z" fill="#F4F4F4" mask="url(#path-57-inside-29_3194_43314)"/>
<path d="M642 321V322H643V321H642ZM641 214V321H643V214H641ZM642 320H535V322H642V320Z" fill="#F4F4F4" mask="url(#path-59-inside-30_3194_43314)"/>
<path d="M749 321V322H750V321H749ZM748 214V321H750V214H748ZM749 320H642V322H749V320Z" fill="#F4F4F4" mask="url(#path-61-inside-31_3194_43314)"/>
<path d="M856 321V322H857V321H856ZM855 214V321H857V214H855ZM856 320H749V322H856V320Z" fill="#F4F4F4" mask="url(#path-63-inside-32_3194_43314)"/>
<path d="M963 321V322H964V321H963ZM962 214V321H964V214H962ZM963 320H856V322H963V320Z" fill="#F4F4F4" mask="url(#path-65-inside-33_3194_43314)"/>
<path d="M1070 321V322H1071V321H1070ZM1069 214V321H1071V214H1069ZM1070 320H963V322H1070V320Z" fill="#F4F4F4" mask="url(#path-67-inside-34_3194_43314)"/>
<path d="M1177 321V322H1178V321H1177ZM1176 214V321H1178V214H1176ZM1177 320H1070V322H1177V320Z" fill="#F4F4F4" mask="url(#path-69-inside-35_3194_43314)"/>
<path d="M1284 321V322H1285V321H1284ZM1283 214V321H1285V214H1283ZM1284 320H1177V322H1284V320Z" fill="#F4F4F4" mask="url(#path-71-inside-36_3194_43314)"/>
<path d="M107 428V429H108V428H107ZM106 321V428H108V321H106ZM107 427H0V429H107V427Z" fill="#F4F4F4" mask="url(#path-73-inside-37_3194_43314)"/>
<path d="M214 428V429H215V428H214ZM213 321V428H215V321H213ZM214 427H107V429H214V427Z" fill="#F4F4F4" mask="url(#path-75-inside-38_3194_43314)"/>
<path d="M321 428V429H322V428H321ZM320 321V428H322V321H320ZM321 427H214V429H321V427Z" fill="#F4F4F4" mask="url(#path-77-inside-39_3194_43314)"/>
<path d="M428 428V429H429V428H428ZM427 321V428H429V321H427ZM428 427H321V429H428V427Z" fill="#F4F4F4" mask="url(#path-79-inside-40_3194_43314)"/>
<path d="M535 428V429H536V428H535ZM534 321V428H536V321H534ZM535 427H428V429H535V427Z" fill="#F4F4F4" mask="url(#path-81-inside-41_3194_43314)"/>
<path d="M642 428V429H643V428H642ZM641 321V428H643V321H641ZM642 427H535V429H642V427Z" fill="#F4F4F4" mask="url(#path-83-inside-42_3194_43314)"/>
<path d="M749 428V429H750V428H749ZM748 321V428H750V321H748ZM749 427H642V429H749V427Z" fill="#F4F4F4" mask="url(#path-85-inside-43_3194_43314)"/>
<path d="M856 428V429H857V428H856ZM855 321V428H857V321H855ZM856 427H749V429H856V427Z" fill="#F4F4F4" mask="url(#path-87-inside-44_3194_43314)"/>
<path d="M963 428V429H964V428H963ZM962 321V428H964V321H962ZM963 427H856V429H963V427Z" fill="#F4F4F4" mask="url(#path-89-inside-45_3194_43314)"/>
<path d="M1070 428V429H1071V428H1070ZM1069 321V428H1071V321H1069ZM1070 427H963V429H1070V427Z" fill="#F4F4F4" mask="url(#path-91-inside-46_3194_43314)"/>
<path d="M1177 428V429H1178V428H1177ZM1176 321V428H1178V321H1176ZM1177 427H1070V429H1177V427Z" fill="#F4F4F4" mask="url(#path-93-inside-47_3194_43314)"/>
<path d="M1284 428V429H1285V428H1284ZM1283 321V428H1285V321H1283ZM1284 427H1177V429H1284V427Z" fill="#F4F4F4" mask="url(#path-95-inside-48_3194_43314)"/>
<path d="M107 535V536H108V535H107ZM106 428V535H108V428H106ZM107 534H0V536H107V534Z" fill="#F4F4F4" mask="url(#path-97-inside-49_3194_43314)"/>
<path d="M214 535V536H215V535H214ZM213 428V535H215V428H213ZM214 534H107V536H214V534Z" fill="#F4F4F4" mask="url(#path-99-inside-50_3194_43314)"/>
<path d="M321 535V536H322V535H321ZM320 428V535H322V428H320ZM321 534H214V536H321V534Z" fill="#F4F4F4" mask="url(#path-101-inside-51_3194_43314)"/>
<path d="M428 535V536H429V535H428ZM427 428V535H429V428H427ZM428 534H321V536H428V534Z" fill="#F4F4F4" mask="url(#path-103-inside-52_3194_43314)"/>
<path d="M535 535V536H536V535H535ZM534 428V535H536V428H534ZM535 534H428V536H535V534Z" fill="#F4F4F4" mask="url(#path-105-inside-53_3194_43314)"/>
<path d="M642 535V536H643V535H642ZM641 428V535H643V428H641ZM642 534H535V536H642V534Z" fill="#F4F4F4" mask="url(#path-107-inside-54_3194_43314)"/>
<path d="M749 535V536H750V535H749ZM748 428V535H750V428H748ZM749 534H642V536H749V534Z" fill="#F4F4F4" mask="url(#path-109-inside-55_3194_43314)"/>
<path d="M856 535V536H857V535H856ZM855 428V535H857V428H855ZM856 534H749V536H856V534Z" fill="#F4F4F4" mask="url(#path-111-inside-56_3194_43314)"/>
<path d="M963 535V536H964V535H963ZM962 428V535H964V428H962ZM963 534H856V536H963V534Z" fill="#F4F4F4" mask="url(#path-113-inside-57_3194_43314)"/>
<path d="M1070 535V536H1071V535H1070ZM1069 428V535H1071V428H1069ZM1070 534H963V536H1070V534Z" fill="#F4F4F4" mask="url(#path-115-inside-58_3194_43314)"/>
<path d="M1177 535V536H1178V535H1177ZM1176 428V535H1178V428H1176ZM1177 534H1070V536H1177V534Z" fill="#F4F4F4" mask="url(#path-117-inside-59_3194_43314)"/>
<path d="M1284 535V536H1285V535H1284ZM1283 428V535H1285V428H1283ZM1284 534H1177V536H1284V534Z" fill="#F4F4F4" mask="url(#path-119-inside-60_3194_43314)"/>
<path d="M107 642V643H108V642H107ZM106 535V642H108V535H106ZM107 641H0V643H107V641Z" fill="#F4F4F4" mask="url(#path-121-inside-61_3194_43314)"/>
<path d="M214 642V643H215V642H214ZM213 535V642H215V535H213ZM214 641H107V643H214V641Z" fill="#F4F4F4" mask="url(#path-123-inside-62_3194_43314)"/>
<path d="M321 642V643H322V642H321ZM320 535V642H322V535H320ZM321 641H214V643H321V641Z" fill="#F4F4F4" mask="url(#path-125-inside-63_3194_43314)"/>
<path d="M428 642V643H429V642H428ZM427 535V642H429V535H427ZM428 641H321V643H428V641Z" fill="#F4F4F4" mask="url(#path-127-inside-64_3194_43314)"/>
<path d="M535 642V643H536V642H535ZM534 535V642H536V535H534ZM535 641H428V643H535V641Z" fill="#F4F4F4" mask="url(#path-129-inside-65_3194_43314)"/>
<path d="M642 642V643H643V642H642ZM641 535V642H643V535H641ZM642 641H535V643H642V641Z" fill="#F4F4F4" mask="url(#path-131-inside-66_3194_43314)"/>
<path d="M749 642V643H750V642H749ZM748 535V642H750V535H748ZM749 641H642V643H749V641Z" fill="#F4F4F4" mask="url(#path-133-inside-67_3194_43314)"/>
<path d="M856 642V643H857V642H856ZM855 535V642H857V535H855ZM856 641H749V643H856V641Z" fill="#F4F4F4" mask="url(#path-135-inside-68_3194_43314)"/>
<path d="M963 642V643H964V642H963ZM962 535V642H964V535H962ZM963 641H856V643H963V641Z" fill="#F4F4F4" mask="url(#path-137-inside-69_3194_43314)"/>
<path d="M1070 642V643H1071V642H1070ZM1069 535V642H1071V535H1069ZM1070 641H963V643H1070V641Z" fill="#F4F4F4" mask="url(#path-139-inside-70_3194_43314)"/>
<path d="M1177 642V643H1178V642H1177ZM1176 535V642H1178V535H1176ZM1177 641H1070V643H1177V641Z" fill="#F4F4F4" mask="url(#path-141-inside-71_3194_43314)"/>
<path d="M1284 642V643H1285V642H1284ZM1283 535V642H1285V535H1283ZM1284 641H1177V643H1284V641Z" fill="#F4F4F4" mask="url(#path-143-inside-72_3194_43314)"/>
<path d="M107 749V750H108V749H107ZM106 642V749H108V642H106ZM107 748H0V750H107V748Z" fill="#F4F4F4" mask="url(#path-145-inside-73_3194_43314)"/>
<path d="M214 749V750H215V749H214ZM213 642V749H215V642H213ZM214 748H107V750H214V748Z" fill="#F4F4F4" mask="url(#path-147-inside-74_3194_43314)"/>
<path d="M321 749V750H322V749H321ZM320 642V749H322V642H320ZM321 748H214V750H321V748Z" fill="#F4F4F4" mask="url(#path-149-inside-75_3194_43314)"/>
<path d="M428 749V750H429V749H428ZM427 642V749H429V642H427ZM428 748H321V750H428V748Z" fill="#F4F4F4" mask="url(#path-151-inside-76_3194_43314)"/>
<path d="M535 749V750H536V749H535ZM534 642V749H536V642H534ZM535 748H428V750H535V748Z" fill="#F4F4F4" mask="url(#path-153-inside-77_3194_43314)"/>
<path d="M642 749V750H643V749H642ZM641 642V749H643V642H641ZM642 748H535V750H642V748Z" fill="#F4F4F4" mask="url(#path-155-inside-78_3194_43314)"/>
<path d="M749 749V750H750V749H749ZM748 642V749H750V642H748ZM749 748H642V750H749V748Z" fill="#F4F4F4" mask="url(#path-157-inside-79_3194_43314)"/>
<path d="M856 749V750H857V749H856ZM855 642V749H857V642H855ZM856 748H749V750H856V748Z" fill="#F4F4F4" mask="url(#path-159-inside-80_3194_43314)"/>
<path d="M963 749V750H964V749H963ZM962 642V749H964V642H962ZM963 748H856V750H963V748Z" fill="#F4F4F4" mask="url(#path-161-inside-81_3194_43314)"/>
<path d="M1070 749V750H1071V749H1070ZM1069 642V749H1071V642H1069ZM1070 748H963V750H1070V748Z" fill="#F4F4F4" mask="url(#path-163-inside-82_3194_43314)"/>
<path d="M1177 749V750H1178V749H1177ZM1176 642V749H1178V642H1176ZM1177 748H1070V750H1177V748Z" fill="#F4F4F4" mask="url(#path-165-inside-83_3194_43314)"/>
<path d="M1284 749V750H1285V749H1284ZM1283 642V749H1285V642H1283ZM1284 748H1177V750H1284V748Z" fill="#F4F4F4" mask="url(#path-167-inside-84_3194_43314)"/>
</svg>
